HIERARCHY
ROOT Hips
{
	OFFSET 0.00000 0.00000 0.00000
	CHANNELS 6 Xposition Yposition Zposition Zrotation Yrotation Xrotation 
	JOINT LHipJoint
	{
		OFFSET 0 0 0
		CHANNELS 3 Zrotation Yrotation Xrotation
		JOINT LeftHip
		{
			OFFSET 1.74857 -1.85566 0.69197
			CHANNELS 3 Zrotation Yrotation Xrotation
			JOINT LeftKnee
			{
				OFFSET 2.40003 -6.59403 0.00000
				CHANNELS 3 Zrotation Yrotation Xrotation
				JOINT LeftAnkle
				{
					OFFSET 2.82169 -7.75254 0.00000
					CHANNELS 3 Zrotation Yrotation Xrotation
					JOINT LeftToe
					{
						OFFSET 0.16466 -0.45240 2.26890
						CHANNELS 3 Zrotation Yrotation Xrotation
						End Site
						{
							OFFSET 0.00000 -0.00000 1.16486
						}
					}
				}
			}
		}
	}
	JOINT RHipJoint
	{
		OFFSET 0 0 0
		CHANNELS 3 Zrotation Yrotation Xrotation
		JOINT RightHip
		{
			OFFSET -1.64169 -1.85566 0.69197
			CHANNELS 3 Zrotation Yrotation Xrotation
			JOINT RightKnee
			{
				OFFSET -2.41814 -6.64379 0.00000
				CHANNELS 3 Zrotation Yrotation Xrotation
				JOINT RightAnkle
				{
					OFFSET -2.80588 -7.70911 0.00000
					CHANNELS 3 Zrotation Yrotation Xrotation
					JOINT RightToe
					{
						OFFSET -0.19098 -0.52472 2.25401
						CHANNELS 3 Zrotation Yrotation Xrotation
						End Site
						{
							OFFSET -0.00000 -0.00000 1.16333
						}
					}
				}
			}
		}
	}
	JOINT lowerback
	{
		OFFSET 0 0 0
		CHANNELS 3 Zrotation Yrotation Xrotation
		JOINT Chest
		{
			OFFSET -0.02828 2.14690 -0.11061
			CHANNELS 3 Zrotation Yrotation Xrotation
			JOINT Chest2
			{
				OFFSET -0.00167 2.15299 0.00759
				CHANNELS 3 Zrotation Yrotation Xrotation
				JOINT lowerneck
				{
					OFFSET 0 0 0
					CHANNELS 3 Zrotation Yrotation Xrotation
					JOINT Neck
					{
						OFFSET -0.09296 1.90118 0.07197
						CHANNELS 3 Zrotation Yrotation Xrotation
						JOINT Head
						{
							OFFSET 0.08490 1.89526 -0.24604
							CHANNELS 3 Zrotation Yrotation Xrotation
							End Site
							{
								OFFSET 0.03186 1.92109 -0.09483
							}
						}
					}
				}
				JOINT LeftCollar
				{
					OFFSET 0 0 0
					CHANNELS 3 Zrotation Yrotation Xrotation
					JOINT LeftShoulder
					{
						OFFSET 3.21569 1.44644 -0.03720
CHANNELS 3 Zrotation Xrotation Yrotation
						JOINT LeftElbow
						{
OFFSET 0 -5.476510 -0.000000
CHANNELS 3 Zrotation Xrotation Yrotation
							JOINT LeftWrist
							{
OFFSET 0 -3.090580 -0.000000
CHANNELS 3 Zrotation Xrotation Yrotation
								JOINT lhand
								{
									OFFSET 0 0 0
CHANNELS 3 Zrotation Xrotation Yrotation
									JOINT LFingers
									{
OFFSET 0 -0.771610 -0.000000
CHANNELS 3 Zrotation Xrotation Yrotation
										End Site
										{
OFFSET 0 -0.622090 -0.000000
										}
									}
								}
								JOINT LThumb
								{
OFFSET 0 0.000000 0.000000
CHANNELS 3 Zrotation Xrotation Yrotation
									End Site
									{
OFFSET 0 -0.631590 0.631590
									}
								}
							}
						}
					}
				}
				JOINT RightCollar
				{
					OFFSET 0 0 0
					CHANNELS 3 Zrotation Yrotation Xrotation
					JOINT RightShoulder
					{
						OFFSET -3.38693 1.28904 -0.07093
CHANNELS 3 Zrotation Xrotation Yrotation
						JOINT RightElbow
						{
OFFSET 0 -5.141820 -0.000000
CHANNELS 3 Zrotation Xrotation Yrotation
							JOINT RightWrist
							{
OFFSET 0 -3.355650 -0.000000
CHANNELS 3 Zrotation Xrotation Yrotation
								JOINT rhand
								{
									OFFSET 0 0 0
CHANNELS 3 Zrotation Xrotation Yrotation
									JOINT RFingers
									{
OFFSET 0 -0.801040 -0.000000
CHANNELS 3 Zrotation Xrotation Yrotation
										End Site
										{
OFFSET 0 -0.645820 -0.000000
										}
									}
								}
								JOINT RThumb
								{
OFFSET 0 0.000000 0.000000
CHANNELS 3 Zrotation Xrotation Yrotation
									End Site
									{
OFFSET 0 -0.655680 0.655680
									}
								}
							}
						}
					}
				}
			}
		}
	}
}
MOTION
Frames: 9
Frame Time: 0.008333333333333333
0.969260 17.939561 -1.567841 1.058527 -8.650321 7.687312 0.000000 0.000000 0.000000 -22.081994 -1.706655 -24.160471 2.553817 9.935124 28.766932 0.683000 8.413845 -20.862901 0.328255 -3.682160 -10.184221 0.000000 0.000000 0.000000 13.154750 8.840679 -24.989579 -2.729015 -10.242880 29.766777 -0.002902 -9.662863 -13.814595 -0.518645 4.615498 -12.815156 0.622313 3.303255 15.439919 0.886871 4.301238 11.947702 0.088495 2.135465 4.065900 -3.517227 -6.292887 1.426070 5.843580 -8.173648 -10.252455 2.772083 -4.183820 -3.156736 0.000000 0.000000 0.000000 21.632522 -63.885335 -60.359583 54.623565 -54.698142 29.908519 29.993502 -58.937269 -50.420659 0.000000 0.000000 0.000000 -7.125000 0.000000 0.000000 -44.853919 82.262984 39.118374 0.000000 0.000000 0.000000 -20.583430 -54.994647 48.587372 -55.844969 -55.097012 -30.907846 -30.397825 -68.665075 3.716639 0.000000 0.000000 0.000000 7.125000 0.000000 0.000000 -3.108537 34.274095 -0.819191
0.971177 17.834480 -1.673355 1.245415 -9.954782 8.219747 0.000000 0.000000 0.000000 -21.938827 -1.688493 -26.843552 3.045790 10.768675 31.503727 0.946125 7.141121 -22.290111 0.108179 -2.120603 -5.839107 0.000000 0.000000 0.000000 12.697225 9.781304 -27.217493 -3.069133 -10.806064 31.628662 -0.114409 -8.696047 -14.346018 -0.493372 4.502609 -12.495392 0.508437 3.222377 16.493162 0.710660 4.160758 12.429044 -0.058098 2.058343 4.054124 -3.802648 -6.212362 -0.151448 5.938892 -8.071509 -8.393181 2.697695 -4.105964 -2.229072 0.000000 0.000000 0.000000 18.779443 -62.068867 -61.386850 55.624411 -55.026536 30.726999 31.533854 -56.777864 -49.439800 0.000000 0.000000 0.000000 -7.125000 0.000000 0.000000 -37.095651 82.428799 32.282380 0.000000 0.000000 0.000000 -15.876382 -53.816542 51.819917 -56.420751 -55.278143 -31.380476 -30.979816 -66.589942 3.854392 0.000000 0.000000 0.000000 7.125000 0.000000 0.000000 -3.591078 34.455831 -0.930904
0.963576 17.729841 -1.756660 1.380169 -10.847394 8.866692 0.000000 0.000000 0.000000 -21.863241 -1.477777 -29.647071 3.578143 11.576710 34.250679 1.046982 6.537010 -22.740589 0.107402 -2.112823 -5.817687 0.000000 0.000000 0.000000 12.242658 10.725699 -29.566134 -3.486047 -11.442990 33.788947 -0.244358 -7.799421 -15.245901 -0.336479 3.727674 -10.311730 0.564612 3.119305 17.709482 0.729475 4.017289 12.475044 -0.117339 1.982519 3.480834 -4.455402 -6.333826 -1.680113 5.864886 -8.251559 -6.270954 2.641520 -4.151781 -1.236466 0.000000 0.000000 0.000000 14.723038 -60.758263 -63.329461 56.188915 -55.205734 31.190092 32.952785 -54.109883 -49.905110 0.000000 0.000000 0.000000 -7.125000 0.000000 0.000000 -38.612617 83.366971 34.281689 0.000000 0.000000 0.000000 -11.937569 -52.515287 54.026137 -56.827070 -55.403371 -31.714730 -31.730829 -65.325924 2.808942 0.000000 0.000000 0.000000 7.125000 0.000000 0.000000 -4.182366 33.260485 -1.206294
0.946361 17.615758 -1.809263 1.541136 -11.538398 9.593573 0.000000 0.000000 0.000000 -21.758615 -1.542179 -32.300350 4.139032 12.343026 36.956712 1.162628 5.960320 -23.332707 0.105233 -2.092022 -5.760009 0.000000 0.000000 0.000000 11.742248 11.383580 -32.200056 -3.986838 -12.142734 36.238959 -0.322932 -7.074977 -15.597384 -0.438026 4.246740 -11.771745 0.614027 2.975721 18.553264 0.618824 3.827025 12.451035 -0.279562 1.889245 3.034871 -4.540195 -6.310398 -3.695549 5.792816 -8.214135 -3.812309 2.485113 -4.092652 -0.113621 0.000000 0.000000 0.000000 10.237431 -59.590480 -64.966458 57.135333 -55.496874 31.968707 33.330256 -51.735971 -49.091058 0.000000 0.000000 0.000000 -7.125000 0.000000 0.000000 -32.585791 83.046063 28.649717 0.000000 0.000000 0.000000 -8.642160 -51.873520 55.870281 -57.313571 -55.550513 -32.115603 -32.613111 -63.496632 1.794342 0.000000 0.000000 0.000000 7.125000 0.000000 0.000000 -4.857441 32.085223 -1.540191
0.918447 17.502274 -1.839179 1.408747 -11.971327 10.285114 0.000000 0.000000 0.000000 -21.305834 -1.908968 -34.763149 4.796916 13.151165 39.937329 1.247626 6.120527 -24.125118 0.216483 -2.992486 -8.257946 0.000000 0.000000 0.000000 11.639232 11.949583 -34.529768 -4.500256 -12.797774 38.616207 -0.407597 -6.529554 -16.201660 -0.452617 4.316024 -11.967496 1.255882 2.770271 19.062821 0.407381 3.644201 12.525970 -0.855381 1.841536 2.916742 -4.890876 -6.540434 -5.857963 6.265658 -8.497031 -1.546033 2.576578 -4.182828 1.034249 0.000000 0.000000 0.000000 6.038579 -59.031511 -67.281916 58.817466 -55.986490 33.358982 35.598478 -49.030699 -46.363206 0.000000 0.000000 0.000000 -7.125000 0.000000 0.000000 -14.242896 81.964379 12.140500 0.000000 0.000000 0.000000 -5.426200 -52.844385 57.044386 -57.100122 -55.486315 -31.939689 -33.315453 -61.823446 0.734167 0.000000 0.000000 0.000000 7.125000 0.000000 0.000000 -5.361884 30.833153 -1.863200
0.879404 17.388513 -1.858543 1.529289 -12.340037 10.822919 0.000000 0.000000 0.000000 -21.036441 -2.206680 -36.762489 5.355673 13.773389 42.337396 1.411044 5.549982 -25.050856 0.201588 -2.890882 -7.975068 0.000000 0.000000 0.000000 11.267114 12.440300 -36.695043 -5.060824 -13.451818 41.084438 -0.529574 -5.752154 -17.048077 -0.408125 4.100724 -11.360197 0.877707 2.679729 19.793321 0.528818 3.480279 11.980449 -0.543646 1.723656 1.910364 -4.823810 -6.482935 -7.054744 5.382449 -8.429368 0.767353 2.211224 -4.125927 1.941099 0.000000 0.000000 0.000000 -0.302462 -57.745441 -69.891808 59.151647 -56.079552 33.636212 34.928526 -46.439193 -43.786930 0.000000 0.000000 0.000000 -7.125000 0.000000 0.000000 -7.978917 79.343931 6.375214 0.000000 0.000000 0.000000 -2.811433 -52.338865 58.586151 -58.210427 -55.813874 -32.856357 -33.814344 -58.888751 -1.204644 0.000000 0.000000 0.000000 7.125000 0.000000 0.000000 -5.621557 28.512378 -2.266376
0.847283 17.271687 -1.867368 1.183484 -12.698099 11.091730 0.000000 0.000000 0.000000 -20.347408 -2.118467 -38.560141 5.996892 14.425169 44.968851 1.549157 4.971857 -25.754952 0.180719 -2.738020 -7.550281 0.000000 0.000000 0.000000 11.522797 12.680807 -38.404260 -5.601425 -14.030446 43.359924 -0.628915 -4.966315 -17.608712 -0.397695 4.049042 -11.214625 1.049162 2.562557 20.834527 0.719835 3.367684 11.543926 -0.479496 1.658698 0.908217 -5.082241 -6.418482 -8.398449 5.251114 -8.293290 1.922137 2.171798 -4.036789 2.570988 0.000000 0.000000 0.000000 -5.381502 -56.255625 -71.663718 61.163325 -56.611737 35.310815 35.405462 -43.260251 -40.876367 0.000000 0.000000 0.000000 -7.125000 0.000000 0.000000 -1.736941 76.692118 1.291916 0.000000 0.000000 0.000000 -1.634225 -51.862579 59.032975 -60.673487 -56.486479 -34.902056 -34.781974 -57.718191 -4.410822 0.000000 0.000000 0.000000 7.125000 0.000000 0.000000 -6.074891 24.615233 -3.008684
0.818427 17.151413 -1.882311 1.121857 -13.180033 11.225730 0.000000 0.000000 0.000000 -19.970502 -2.009279 -40.157051 6.611661 14.995805 47.389527 1.686930 4.518612 -26.507885 0.165286 -2.619062 -7.220014 0.000000 0.000000 0.000000 11.469623 12.970039 -39.999832 -6.152731 -14.574622 45.591576 -0.708811 -4.458865 -18.140494 -0.464303 4.370383 -12.121088 0.991604 2.444606 21.450832 0.661178 3.210097 11.246990 -0.514466 1.572192 0.275506 -5.022197 -6.304962 -9.358062 5.323750 -8.125282 2.339306 2.166884 -3.934205 2.883486 0.000000 0.000000 0.000000 -7.510060 -55.474900 -72.234727 63.221541 -57.108679 37.034328 34.006298 -40.720129 -38.782029 0.000000 0.000000 0.000000 -7.125000 0.000000 0.000000 -1.787081 74.079060 1.229002 0.000000 0.000000 0.000000 -1.435152 -52.400555 58.970344 -61.929855 -56.802589 -35.951508 -35.334313 -56.504887 -7.047102 0.000000 0.000000 0.000000 7.125000 0.000000 0.000000 -6.196533 21.383474 -3.530999
0.791818 17.042894 -1.882583 1.048703 -13.827060 11.180095 0.000000 0.000000 0.000000 -19.671190 -1.577045 -41.430303 7.198639 15.496757 49.621338 1.826993 4.141231 -27.293793 0.210625 -2.954632 -8.152436 0.000000 0.000000 0.000000 11.428250 13.488513 -41.090414 -6.642808 -15.023473 47.509921 -0.790768 -4.030711 -18.730992 -0.492140 4.498017 -12.482261 0.957363 2.286021 21.519969 0.543777 2.991885 11.255687 -0.577941 1.462995 0.252329 -4.725412 -6.037369 -10.566465 5.022084 -7.743251 2.476079 2.007684 -3.734042 3.103927 0.000000 0.000000 0.000000 -7.886236 -56.428675 -72.464642 65.092023 -57.520624 38.608642 28.313364 -40.378384 -39.348462 0.000000 0.000000 0.000000 -7.125000 0.000000 0.000000 -11.629082 72.655910 7.661808 0.000000 0.000000 0.000000 -1.973392 -53.575421 58.545378 -63.045127 -57.068222 -36.886161 -35.345088 -55.861768 -9.019119 0.000000 0.000000 0.000000 7.125000 0.000000 0.000000 -5.970128 19.000799 -3.721005
